<?xml version="1.0" encoding="UTF-8"?>
<svg id="Camada_2" data-name="Camada 2" xmlns="http://www.w3.org/2000/svg" viewBox="0 0 463.19 365.61">
  <defs>
    <style>
      .cls-1 {
        fill: #fff;
      }

      .cls-2 {
        fill: #00ffa7;
      }
    </style>
  </defs>
  <g id="Camada_1-2" data-name="Camada 1">
    <g>
      <g>
        <path class="cls-2" d="M283.07,174.1v115.94c0,51.76-27.95,75.57-78.16,75.57-26.4,0-52.02-6.47-68.32-19.15l16.05-28.99c11.9,9.58,31.32,15.79,49.17,15.79,28.47,0,40.89-12.94,40.89-38.04v-5.95c-10.61,11.65-25.88,17.34-44,17.34-38.56,0-69.62-26.66-69.62-67.29s31.06-67.29,69.62-67.29c19.41,0,35.46,6.47,46.07,19.93v-17.86h38.3ZM243.21,239.32c0-20.45-15.27-34.16-36.49-34.16s-36.75,13.72-36.75,34.16,15.53,34.16,36.75,34.16,36.49-13.72,36.49-34.16Z"/>
        <path class="cls-2" d="M310.24,243.72c0-41.93,32.35-71.69,76.61-71.69s76.35,29.76,76.35,71.69-32.09,71.69-76.35,71.69-76.61-29.76-76.61-71.69ZM422.3,243.72c0-24.07-15.27-38.56-35.46-38.56s-35.71,14.49-35.71,38.56,15.53,38.56,35.71,38.56,35.46-14.49,35.46-38.56Z"/>
      </g>
      <g>
        <path class="cls-2" d="M66.15,237.31v30.64h30.64v-30.64h-30.64Z"/>
        <path class="cls-2" d="M15.29,176.58v40.8h40.8v-40.8H15.29Z"/>
        <path class="cls-2" d="M86.63,182.67v20.43h20.43v-20.43h-20.43Z"/>
      </g>
      <g>
        <path class="cls-1" d="M99.42,107.51c5.58-2.18,10.77-5.53,15.63-10.22l21.43,23.22c-13.06,14.96-32.15,22.44-57.27,22.44-15.69,0-29.53-3.07-41.53-9.15-12.06-6.08-21.32-14.57-27.85-25.4C3.29,97.57,0,85.24,0,71.51s3.24-25.84,9.66-36.79c6.48-10.94,15.29-19.43,26.57-25.57C47.5,3.07,60.17,0,74.3,0c13.23,0,25.29,2.79,36.12,8.37,10.83,5.58,19.48,13.68,25.96,24.28,6.48,10.61,9.66,23.11,9.66,37.57l-102.71,19.87c2.9,6.87,7.54,12.06,13.79,15.46,6.25,3.46,13.95,5.14,23.11,5.14,7.2,0,13.62-1.06,19.2-3.24v.06ZM49.51,40.3c-6.36,6.53-9.71,15.57-10.05,27.07l67.6-13.17c-1.9-7.2-5.75-13.01-11.61-17.3-5.86-4.3-12.89-6.47-21.16-6.47-10.16,0-18.42,3.29-24.78,9.82v.06Z"/>
        <path class="cls-1" d="M308.35,2.12l-58.61,138.82h-41.53L149.88,2.12h41.53l38.46,94.45L269.61,2.12h38.74Z"/>
        <path class="cls-1" d="M347.7,133.86c-11.61-6.08-20.71-14.57-27.24-25.4-6.53-10.83-9.82-23.17-9.82-36.9s3.24-26.07,9.82-36.9c6.53-10.83,15.63-19.31,27.24-25.4C359.31,3.18,372.43.11,387.06.11s27.69,3.07,39.24,9.15c11.5,6.08,20.54,14.57,27.07,25.4,6.53,10.83,9.83,23.17,9.83,36.9s-3.3,26.07-9.83,36.9c-6.53,10.83-15.57,19.31-27.07,25.4-11.56,6.08-24.62,9.15-39.24,9.15s-27.74-3.07-39.35-9.15ZM412.45,99.53c6.64-6.98,9.94-16.3,9.94-28.02s-3.3-21.04-9.94-28.02c-6.64-6.98-15.07-10.44-25.4-10.44s-18.87,3.46-25.57,10.44c-6.7,6.98-10.05,16.3-10.05,28.02s3.35,21.04,10.05,28.02c6.7,6.98,15.24,10.44,25.57,10.44s18.81-3.46,25.4-10.44Z"/>
      </g>
    </g>
  </g>
</svg>

